M48
;Layer_Color=9474304
;FILE_FORMAT=4:4
METRIC,LZ
;TYPE=PLATED
T1F00S00C0.3000
T2F00S00C1.5000
%
T01
X0039Y0012
X00403Y00187
Y00205
X00395Y0022
X00377
X00369Y00205
Y00187
X0034Y00208
Y00216
X00377Y0028
X00395
X00327Y00291
X00329Y00264
Y00256
X00329Y00241
Y00233
X00312Y00249
X00300809Y00224809
X00277Y00219
X00258Y00241
X00242
Y00258
X00258
X00283Y00266
X00208Y0026
X00213485Y00251
X00204Y00229
X00178Y00239
X00171
X00123Y00251
Y00274
X0014Y00208
Y00201
Y00193
X00134Y00169
X00133Y00131
X001Y0013
X00085
X00095Y00115
X0011
X001Y001
X00085
X00095Y00085
X0011
X001Y0007
X00085
X00095Y00055
X0011
X00107Y00144
Y00156
X00095Y00148
X0019Y00131
X00194Y00185
X00228Y00163
X00251Y0016
X00274Y0016
X00307809Y00190809
X00331Y00191
X00243Y00203
X00233Y00211
X00219Y00291
X00228Y00305
X00247Y00308
X00245Y00297
X00255
X003Y00307
X00315Y00317
X00322
X00327Y00299
X0029Y00353
X00273Y00362
X00285Y00397
X0019Y00371
X00133Y003709
X001Y0037
X00085
X00095Y00355
X0011
X00123Y00345
Y00322
X0011Y00325
X00095
X001Y0034
X00085
Y0031
X001
X00095Y00295
X0011
X00123Y00298
X00193Y00312
X00194Y00432
Y00441
Y0045
X00102Y00409
X00107Y00396
Y00384
X00095Y00388
X0039Y00379
X00403Y00313
Y00295
X00369
Y00313
T02
X0045Y0014
Y002
X0005
Y003
X0045
Y0036
M30
