G04*
G04 #@! TF.GenerationSoftware,Altium Limited,Altium Designer,21.9.1 (22)*
G04*
G04 Layer_Physical_Order=3*
G04 Layer_Color=36540*
%FSLAX44Y44*%
%MOMM*%
G71*
G04*
G04 #@! TF.SameCoordinates,2345FEB6-A16B-4DA5-A685-52EC4FAC100B*
G04*
G04*
G04 #@! TF.FilePolarity,Positive*
G04*
G01*
G75*
%ADD10C,0.2000*%
%ADD24C,0.6000*%
%ADD29C,1.0000*%
D10*
X297485Y272000D02*
X318000Y251485D01*
X241589Y284823D02*
X254412Y272000D01*
X297485D01*
X241589Y284823D02*
Y290926D01*
X228000Y305000D02*
X235448Y297552D01*
Y297067D02*
X241589Y290926D01*
X235448Y297067D02*
Y297552D01*
X294000Y203000D02*
X318000Y227000D01*
Y251485D01*
X243000Y203000D02*
X294000D01*
D24*
X102000Y409000D02*
D03*
X133000Y131000D02*
D03*
X134000Y169000D02*
D03*
X255000Y297000D02*
D03*
X219000Y291000D02*
D03*
X208000Y260000D02*
D03*
X300809Y224809D02*
D03*
X307809Y190809D02*
D03*
X390000Y120000D02*
D03*
X204000Y229000D02*
D03*
X194000Y185000D02*
D03*
X193000Y312000D02*
D03*
X228000Y305000D02*
D03*
X233000Y211000D02*
D03*
X190000Y371000D02*
D03*
X390000Y379000D02*
D03*
X190000Y131000D02*
D03*
X133000Y370900D02*
D03*
X123000Y251000D02*
D03*
X243000Y203000D02*
D03*
D29*
X184000Y211000D02*
X233000D01*
X142000Y169000D02*
X184000Y211000D01*
X134000Y169000D02*
X142000D01*
X102000Y409000D02*
X102100Y409100D01*
X139900D01*
X132900Y131000D02*
X133000D01*
X120460Y143440D02*
X132900Y131000D01*
X120460Y143440D02*
Y212460D01*
X139900Y409100D02*
X162140Y386860D01*
Y316860D02*
X188000Y291000D01*
X219000D01*
X219343Y231000D02*
X294617D01*
X199343Y251000D02*
X219343Y231000D01*
X123000Y251000D02*
X199343D01*
X120460Y212460D02*
X137000Y229000D01*
X204000D01*
X307809Y190809D02*
X378617Y120000D01*
X390000D01*
X190000Y131000D02*
X194000Y135000D01*
Y185000D01*
X162140Y316860D02*
Y386860D01*
X143000Y305000D02*
Y360900D01*
X179000Y269000D02*
X199000D01*
X143000Y305000D02*
X179000Y269000D01*
X199000D02*
X208000Y260000D01*
X193000Y312172D02*
Y368000D01*
X190000Y371000D02*
X193000Y368000D01*
X261387Y297000D02*
X343387Y379000D01*
X390000D01*
X255000Y297000D02*
X261387D01*
X294617Y231000D02*
X300809Y224809D01*
X133000Y370900D02*
X143000Y360900D01*
M02*
