G04*
G04 #@! TF.GenerationSoftware,Altium Limited,Altium Designer,21.9.1 (22)*
G04*
G04 Layer_Color=8388736*
%FSLAX44Y44*%
%MOMM*%
G71*
G04*
G04 #@! TF.SameCoordinates,2345FEB6-A16B-4DA5-A685-52EC4FAC100B*
G04*
G04*
G04 #@! TF.FilePolarity,Negative*
G04*
G01*
G75*
%ADD16C,0.3000*%
%ADD17R,2.3032X0.8032*%
%ADD18R,4.0532X5.7032*%
%ADD19R,2.7532X3.9532*%
%ADD20R,1.1032X2.7032*%
%ADD21C,4.2032*%
D16*
X13000Y33313D02*
Y18078D01*
Y23157D01*
X23157Y33313D01*
X15539Y25696D01*
X23157Y18078D01*
X35853D02*
X30774D01*
X28235Y20617D01*
Y25696D01*
X30774Y28235D01*
X35853D01*
X38392Y25696D01*
Y23157D01*
X28235D01*
X43470Y28235D02*
X48548Y18078D01*
X53627Y28235D01*
X58705Y18078D02*
X63784D01*
X61244D01*
Y28235D01*
X58705D01*
X71401Y18078D02*
Y28235D01*
X79019D01*
X81558Y25696D01*
Y18078D01*
X112028Y33313D02*
X101871D01*
Y18078D01*
X112028D01*
X101871Y25696D02*
X106950D01*
X122185Y13000D02*
X124724D01*
X127263Y15539D01*
Y28235D01*
X119646D01*
X117106Y25696D01*
Y20617D01*
X119646Y18078D01*
X127263D01*
X139959D02*
X134881D01*
X132341Y20617D01*
Y25696D01*
X134881Y28235D01*
X139959D01*
X142498Y25696D01*
Y23157D01*
X132341D01*
X157733Y33313D02*
Y18078D01*
X150116D01*
X147577Y20617D01*
Y25696D01*
X150116Y28235D01*
X157733D01*
X162812D02*
Y20617D01*
X165351Y18078D01*
X172968D01*
Y15539D01*
X170429Y13000D01*
X167890D01*
X172968Y18078D02*
Y28235D01*
D17*
X118000Y409050D02*
D03*
Y396350D02*
D03*
Y383650D02*
D03*
Y370950D02*
D03*
X176000Y409050D02*
D03*
Y396350D02*
D03*
Y383650D02*
D03*
Y370950D02*
D03*
Y130950D02*
D03*
Y143650D02*
D03*
Y156350D02*
D03*
Y169050D02*
D03*
X118000Y130950D02*
D03*
Y143650D02*
D03*
Y156350D02*
D03*
Y169050D02*
D03*
D18*
X322750Y130000D02*
D03*
X223250D02*
D03*
X322750Y370000D02*
D03*
X223250D02*
D03*
D19*
X386000Y143000D02*
D03*
Y197000D02*
D03*
Y357000D02*
D03*
Y303000D02*
D03*
D20*
X181500Y200000D02*
D03*
X150500D02*
D03*
X181500Y440000D02*
D03*
X150500D02*
D03*
D21*
X50000Y300000D02*
D03*
Y200000D02*
D03*
X450000Y360000D02*
D03*
Y300000D02*
D03*
Y200000D02*
D03*
Y140000D02*
D03*
M02*
