G04*
G04 #@! TF.GenerationSoftware,Altium Limited,Altium Designer,21.9.1 (22)*
G04*
G04 Layer_Color=65535*
%FSLAX44Y44*%
%MOMM*%
G71*
G04*
G04 #@! TF.SameCoordinates,2345FEB6-A16B-4DA5-A685-52EC4FAC100B*
G04*
G04*
G04 #@! TF.FilePolarity,Positive*
G04*
G01*
G75*
%ADD10C,0.2000*%
%ADD11C,0.2540*%
D10*
X143825Y415000D02*
G03*
X150175Y415000I3175J0D01*
G01*
X143825Y175000D02*
G03*
X150175Y175000I3175J0D01*
G01*
X127000Y415000D02*
X143825D01*
X150175D02*
X167000D01*
X127000Y365000D02*
X167000D01*
X127000Y125000D02*
X167000D01*
X150175Y175000D02*
X167000D01*
X127000D02*
X143825D01*
X210000Y193000D02*
X336000D01*
X210000Y67000D02*
X336000D01*
X210000Y307000D02*
X336000D01*
X210000Y433000D02*
X336000D01*
X358000Y114000D02*
Y119000D01*
X414000Y114000D02*
Y119000D01*
X358000Y114000D02*
X414000D01*
Y119000D02*
Y221000D01*
X358000D02*
X414000D01*
X358000Y119000D02*
Y221000D01*
Y119000D02*
X414000D01*
Y381000D02*
Y386000D01*
X358000Y381000D02*
Y386000D01*
X414000D01*
X358000Y279000D02*
Y381000D01*
Y279000D02*
X414000D01*
Y381000D01*
X358000D02*
X414000D01*
X142000Y184000D02*
X190000D01*
Y216000D01*
X142000D02*
X190000D01*
X142000Y184000D02*
Y216000D01*
Y456000D02*
X190000D01*
X142000Y424000D02*
Y456000D01*
Y424000D02*
X190000D01*
Y456000D01*
X112000Y418000D02*
Y415001D01*
Y416501D01*
X120997D01*
X119498Y418000D01*
X112000Y178000D02*
Y175001D01*
Y176500D01*
X120997D01*
X119498Y178000D01*
D11*
X210000Y162000D02*
Y193000D01*
Y67000D02*
Y98000D01*
X336000Y162000D02*
Y193000D01*
Y67000D02*
Y98000D01*
Y307000D02*
Y338000D01*
Y402000D02*
Y433000D01*
X210000Y307000D02*
Y338000D01*
Y402000D02*
Y433000D01*
X144461Y346922D02*
Y357078D01*
X141922Y359618D01*
X136843D01*
X134304Y357078D01*
Y346922D01*
X136843Y344383D01*
X141922D01*
X139382Y349461D02*
X144461Y344383D01*
X141922D02*
X144461Y346922D01*
X159696Y344383D02*
X149539D01*
X159696Y354539D01*
Y357078D01*
X157157Y359618D01*
X152078D01*
X149539Y357078D01*
X260843Y214618D02*
Y199382D01*
X271000D01*
X276078D02*
X281157D01*
X278618D01*
Y214618D01*
X276078Y212078D01*
X259304Y454618D02*
Y439383D01*
X269461D01*
X284696D02*
X274539D01*
X284696Y449539D01*
Y452078D01*
X282157Y454618D01*
X277078D01*
X274539Y452078D01*
X149000Y106922D02*
Y117078D01*
X146461Y119618D01*
X141383D01*
X138843Y117078D01*
Y106922D01*
X141383Y104382D01*
X146461D01*
X143922Y109461D02*
X149000Y104382D01*
X146461D02*
X149000Y106922D01*
X154078Y104382D02*
X159157D01*
X156618D01*
Y119618D01*
X154078Y117078D01*
X401540Y398158D02*
X411697D01*
X406618Y403236D02*
Y393079D01*
X424393Y405775D02*
X419314D01*
X416775Y403236D01*
Y393079D01*
X419314Y390540D01*
X424393D01*
X426932Y393079D01*
Y403236D01*
X424393Y405775D01*
X432010D02*
Y393079D01*
X434549Y390540D01*
X439628D01*
X442167Y393079D01*
Y405775D01*
X447245D02*
X457402D01*
X452324D01*
Y390540D01*
X472637D02*
X462480D01*
X472637Y400697D01*
Y403236D01*
X470098Y405775D01*
X465019D01*
X462480Y403236D01*
X383461Y242078D02*
X380922Y244618D01*
X375843D01*
X373304Y242078D01*
Y231922D01*
X375843Y229382D01*
X380922D01*
X383461Y231922D01*
X388539D02*
X391078Y229382D01*
X396157D01*
X398696Y231922D01*
Y242078D01*
X396157Y244618D01*
X391078D01*
X388539Y242078D01*
Y239539D01*
X391078Y237000D01*
X398696D01*
X377113Y271078D02*
X374574Y273617D01*
X369495D01*
X366956Y271078D01*
Y260922D01*
X369495Y258382D01*
X374574D01*
X377113Y260922D01*
X382191Y258382D02*
X387270D01*
X384730D01*
Y273617D01*
X382191Y271078D01*
X394887D02*
X397426Y273617D01*
X402505D01*
X405044Y271078D01*
Y260922D01*
X402505Y258382D01*
X397426D01*
X394887Y260922D01*
Y271078D01*
X406540Y102157D02*
X416697D01*
X411618Y107236D02*
Y97079D01*
X429393Y109775D02*
X424314D01*
X421775Y107236D01*
Y97079D01*
X424314Y94540D01*
X429393D01*
X431932Y97079D01*
Y107236D01*
X429393Y109775D01*
X437010D02*
Y97079D01*
X439549Y94540D01*
X444628D01*
X447167Y97079D01*
Y109775D01*
X452245D02*
X462402D01*
X457324D01*
Y94540D01*
X467480D02*
X472559D01*
X470019D01*
Y109775D01*
X467480Y107236D01*
X439697Y275236D02*
X437158Y277775D01*
X432079D01*
X429540Y275236D01*
Y265079D01*
X432079Y262540D01*
X437158D01*
X439697Y265079D01*
Y270158D01*
X434618D01*
X444775Y262540D02*
Y277775D01*
X454932Y262540D01*
Y277775D01*
X460010D02*
Y262540D01*
X467628D01*
X470167Y265079D01*
Y275236D01*
X467628Y277775D01*
X460010D01*
X440697Y235236D02*
X438158Y237775D01*
X433079D01*
X430540Y235236D01*
Y225079D01*
X433079Y222540D01*
X438158D01*
X440697Y225079D01*
Y230158D01*
X435618D01*
X445775Y222540D02*
Y237775D01*
X455932Y222540D01*
Y237775D01*
X461010D02*
Y222540D01*
X468628D01*
X471167Y225079D01*
Y235236D01*
X468628Y237775D01*
X461010D01*
X39697Y174236D02*
X37157Y176775D01*
X32079D01*
X29540Y174236D01*
Y164079D01*
X32079Y161540D01*
X37157D01*
X39697Y164079D01*
Y169158D01*
X34618D01*
X44775Y161540D02*
Y176775D01*
X54932Y161540D01*
Y176775D01*
X60010D02*
Y161540D01*
X67628D01*
X70167Y164079D01*
Y174236D01*
X67628Y176775D01*
X60010D01*
X22540Y330158D02*
X32697D01*
X27618Y335236D02*
Y325079D01*
X37775Y337775D02*
Y327618D01*
X42853Y322540D01*
X47932Y327618D01*
Y337775D01*
X53010D02*
X58088D01*
X55549D01*
Y322540D01*
X53010D01*
X58088D01*
X65706D02*
Y337775D01*
X75863Y322540D01*
Y337775D01*
X153601Y237358D02*
X151061Y239897D01*
X145983D01*
X143444Y237358D01*
Y227201D01*
X145983Y224662D01*
X151061D01*
X153601Y227201D01*
X168836Y239897D02*
X158679D01*
Y232279D01*
X163757Y234819D01*
X166297D01*
X168836Y232279D01*
Y227201D01*
X166297Y224662D01*
X161218D01*
X158679Y227201D01*
X153601Y477388D02*
X151061Y479927D01*
X145983D01*
X143444Y477388D01*
Y467231D01*
X145983Y464692D01*
X151061D01*
X153601Y467231D01*
X168836Y479927D02*
X163757Y477388D01*
X158679Y472309D01*
Y467231D01*
X161218Y464692D01*
X166297D01*
X168836Y467231D01*
Y469770D01*
X166297Y472309D01*
X158679D01*
M02*
