G04*
G04 #@! TF.GenerationSoftware,Altium Limited,Altium Designer,21.9.1 (22)*
G04*
G04 Layer_Physical_Order=1*
G04 Layer_Color=255*
%FSLAX44Y44*%
%MOMM*%
G71*
G04*
G04 #@! TF.SameCoordinates,2345FEB6-A16B-4DA5-A685-52EC4FAC100B*
G04*
G04*
G04 #@! TF.FilePolarity,Positive*
G04*
G01*
G75*
%ADD11C,0.2540*%
%ADD12R,2.1000X0.6000*%
%ADD13R,3.8500X5.5000*%
%ADD14R,2.5500X3.7500*%
%ADD15R,0.9000X2.5000*%
%ADD22C,0.5000*%
%ADD23C,4.0000*%
%ADD24C,0.6000*%
G36*
X198000Y427000D02*
X176000D01*
Y454000D01*
X198000D01*
Y427000D01*
D02*
G37*
G36*
X170000Y415000D02*
X187000D01*
Y405000D01*
X154999D01*
X145000Y414999D01*
X140000Y420000D01*
X110000D01*
X103706Y413705D01*
X102995Y414000D01*
X101005D01*
X99168Y413239D01*
X97761Y411832D01*
X97000Y409995D01*
Y408005D01*
X97295Y407295D01*
X75000Y385000D01*
Y290000D01*
X80000Y285000D01*
X310000D01*
X320000Y275000D01*
Y240000D01*
X310000D01*
X287036Y262964D01*
X287239Y263168D01*
X288000Y265005D01*
Y266995D01*
X287239Y268832D01*
X285832Y270239D01*
X283995Y271000D01*
X282005D01*
X280168Y270239D01*
X278761Y268832D01*
X278000Y266995D01*
Y265005D01*
X277996Y265000D01*
X208998Y264998D01*
X208995Y265000D01*
X207005D01*
X207002Y264998D01*
X150000Y264997D01*
X150001Y260001D01*
X166831Y243172D01*
Y241902D01*
X166761Y241832D01*
X166000Y239995D01*
Y238005D01*
X166761Y236168D01*
X168168Y234761D01*
X170005Y234000D01*
X171995D01*
X173832Y234761D01*
X174500Y235429D01*
X175168Y234761D01*
X175293Y234709D01*
X190000Y220003D01*
Y188071D01*
X189761Y187832D01*
X189000Y185995D01*
Y184005D01*
X189761Y182168D01*
X190000Y181929D01*
Y164000D01*
X163000D01*
X163000Y217000D01*
X127996Y252004D01*
X127239Y253832D01*
X125832Y255239D01*
X124004Y255996D01*
X120000Y260000D01*
X35000D01*
X25000Y270000D01*
X25000Y389346D01*
X89450Y455000D01*
X170000D01*
Y415000D01*
D02*
G37*
G36*
X131000Y402000D02*
Y378000D01*
X106999Y378000D01*
X104000Y374999D01*
X104000Y366601D01*
X107249Y364000D01*
X115000D01*
Y290000D01*
X80000D01*
Y375000D01*
Y385000D01*
X97000Y402000D01*
X131000Y402000D01*
D02*
G37*
G36*
X243000Y399000D02*
Y342000D01*
X188000D01*
X164000Y366000D01*
Y401000D01*
X241000D01*
X243000Y399000D01*
D02*
G37*
G36*
X355000Y383000D02*
X471000D01*
Y337000D01*
X300000D01*
Y403000D01*
X345000D01*
X355000Y383000D01*
D02*
G37*
G36*
X407000Y276000D02*
X365000D01*
Y324000D01*
X407000D01*
Y276000D01*
D02*
G37*
G36*
X156000Y187000D02*
X134000D01*
Y213000D01*
X156000D01*
Y187000D01*
D02*
G37*
G36*
X407000Y176000D02*
X365000D01*
Y224000D01*
X407000D01*
Y176000D01*
D02*
G37*
G36*
X244000Y101000D02*
X189000D01*
X163000Y127000D01*
Y161000D01*
X223417D01*
X223761Y160168D01*
X225168Y158761D01*
X227005Y158000D01*
X228995D01*
X230832Y158761D01*
X232239Y160168D01*
X232584Y161000D01*
X244000D01*
Y101000D01*
D02*
G37*
G36*
X131000Y162000D02*
Y138000D01*
X106999Y138000D01*
X104000Y134999D01*
X104000Y126601D01*
X107249Y124000D01*
X115000D01*
Y50000D01*
X80000D01*
Y135000D01*
Y145000D01*
X97000Y162000D01*
X131000Y162000D01*
D02*
G37*
G36*
X471000Y117000D02*
X359000D01*
X343000Y101000D01*
X302000D01*
Y163000D01*
X471000D01*
Y117000D01*
D02*
G37*
D11*
X12540Y32853D02*
Y17618D01*
Y22697D01*
X22697Y32853D01*
X15079Y25236D01*
X22697Y17618D01*
X35393D02*
X30314D01*
X27775Y20157D01*
Y25236D01*
X30314Y27775D01*
X35393D01*
X37932Y25236D01*
Y22697D01*
X27775D01*
X43010Y27775D02*
X48088Y17618D01*
X53167Y27775D01*
X58245Y17618D02*
X63324D01*
X60784D01*
Y27775D01*
X58245D01*
X70941Y17618D02*
Y27775D01*
X78559D01*
X81098Y25236D01*
Y17618D01*
X111568Y32853D02*
X101411D01*
Y17618D01*
X111568D01*
X101411Y25236D02*
X106490D01*
X121725Y12540D02*
X124264D01*
X126803Y15079D01*
Y27775D01*
X119185D01*
X116646Y25236D01*
Y20157D01*
X119185Y17618D01*
X126803D01*
X139499D02*
X134421D01*
X131881Y20157D01*
Y25236D01*
X134421Y27775D01*
X139499D01*
X142038Y25236D01*
Y22697D01*
X131881D01*
X157273Y32853D02*
Y17618D01*
X149656D01*
X147116Y20157D01*
Y25236D01*
X149656Y27775D01*
X157273D01*
X162351D02*
Y20157D01*
X164891Y17618D01*
X172508D01*
Y15079D01*
X169969Y12540D01*
X167430D01*
X172508Y17618D02*
Y27775D01*
D12*
X118000Y409050D02*
D03*
Y396350D02*
D03*
Y383650D02*
D03*
Y370950D02*
D03*
X176000Y409050D02*
D03*
Y396350D02*
D03*
Y383650D02*
D03*
Y370950D02*
D03*
Y130950D02*
D03*
Y143650D02*
D03*
Y156350D02*
D03*
Y169050D02*
D03*
X118000Y130950D02*
D03*
Y143650D02*
D03*
Y156350D02*
D03*
Y169050D02*
D03*
D13*
X322750Y130000D02*
D03*
X223250D02*
D03*
X322750Y370000D02*
D03*
X223250D02*
D03*
D14*
X386000Y143000D02*
D03*
Y197000D02*
D03*
Y357000D02*
D03*
Y303000D02*
D03*
D15*
X181500Y200000D02*
D03*
X150500D02*
D03*
X181500Y440000D02*
D03*
X150500D02*
D03*
D22*
X102000Y409000D02*
X102025Y409025D01*
X121705D01*
X132975Y130975D02*
X133000Y131000D01*
X121755Y130975D02*
X132975D01*
X121730Y130950D02*
X121755Y130975D01*
Y169025D02*
X133975D01*
X134000Y169000D01*
X121705Y409025D02*
X121730Y409050D01*
Y169050D02*
X121755Y169025D01*
X121730Y370950D02*
X131950D01*
D23*
X50000Y300000D02*
D03*
Y200000D02*
D03*
X450000Y360000D02*
D03*
Y300000D02*
D03*
Y200000D02*
D03*
Y140000D02*
D03*
D24*
X95000Y115000D02*
D03*
X85000Y130000D02*
D03*
X100000Y70000D02*
D03*
X110000Y115000D02*
D03*
X85000Y70000D02*
D03*
X110000Y85000D02*
D03*
X85000Y100000D02*
D03*
X95000Y55000D02*
D03*
X110000D02*
D03*
X95000Y85000D02*
D03*
Y148000D02*
D03*
X100000Y100000D02*
D03*
Y130000D02*
D03*
X107000Y144000D02*
D03*
Y156000D02*
D03*
X102000Y409000D02*
D03*
X133000Y131000D02*
D03*
X134000Y169000D02*
D03*
X107000Y396000D02*
D03*
Y384000D02*
D03*
X283000Y266000D02*
D03*
X255000Y297000D02*
D03*
X100000Y370000D02*
D03*
Y340000D02*
D03*
X95000Y388000D02*
D03*
Y325000D02*
D03*
X110000Y295000D02*
D03*
X95000D02*
D03*
X85000Y340000D02*
D03*
X110000Y325000D02*
D03*
X85000Y310000D02*
D03*
X110000Y355000D02*
D03*
X100000Y310000D02*
D03*
X85000Y370000D02*
D03*
X95000Y355000D02*
D03*
X178000Y239000D02*
D03*
X171000D02*
D03*
X331000Y191000D02*
D03*
X340000Y216000D02*
D03*
Y208000D02*
D03*
X329000Y241000D02*
D03*
Y233000D02*
D03*
X329000Y264000D02*
D03*
Y256000D02*
D03*
X327000Y291000D02*
D03*
X322000Y317000D02*
D03*
X140000Y201000D02*
D03*
Y193000D02*
D03*
X369000Y187000D02*
D03*
X395000Y220000D02*
D03*
X369000Y205000D02*
D03*
X377000Y220000D02*
D03*
X403000Y187000D02*
D03*
Y205000D02*
D03*
X369000Y295000D02*
D03*
Y313000D02*
D03*
X395000Y280000D02*
D03*
X403000Y295000D02*
D03*
X377000Y280000D02*
D03*
X403000Y313000D02*
D03*
X140000Y208000D02*
D03*
X194000Y450000D02*
D03*
Y432000D02*
D03*
X219000Y291000D02*
D03*
X245000Y297000D02*
D03*
X208000Y260000D02*
D03*
X300000Y307000D02*
D03*
X300809Y224809D02*
D03*
X312000Y249000D02*
D03*
X273000Y362000D02*
D03*
X290000Y353000D02*
D03*
X258000Y241000D02*
D03*
Y258000D02*
D03*
X242000D02*
D03*
Y241000D02*
D03*
X247000Y308000D02*
D03*
X307809Y190809D02*
D03*
X390000Y120000D02*
D03*
X204000Y229000D02*
D03*
X213485Y251000D02*
D03*
X194000Y185000D02*
D03*
X193000Y312000D02*
D03*
X228000Y305000D02*
D03*
X233000Y211000D02*
D03*
X190000Y371000D02*
D03*
X123000Y274000D02*
D03*
X390000Y379000D02*
D03*
X190000Y131000D02*
D03*
X133000Y370900D02*
D03*
X194000Y441000D02*
D03*
X285000Y397000D02*
D03*
X315000Y317000D02*
D03*
X327000Y299000D02*
D03*
X251000Y160000D02*
D03*
X274000Y160000D02*
D03*
X228000Y163000D02*
D03*
X123000Y298000D02*
D03*
Y322000D02*
D03*
Y345000D02*
D03*
Y251000D02*
D03*
X277000Y219000D02*
D03*
X243000Y203000D02*
D03*
M02*
